# xmcd
#
# Track frame offsets: 
#        150
#        10545
#        32615
#        64655
#        107105
#        129155
#        149612
#        164230
#        190025
#        224077
#        236562
#        258632
#        269232
#        288470
#
# Disc length: 4030 seconds
#
# Revision: 2
# Processed by: cddbd v1.5.2PL0 Copyright (c) Steve Scherf et al.
# Submitted via: ExactAudioCopyFreeDBPlugin 1.0
#
DISCID=dd0fbc0e
DTITLE=Various Artist - Blues Guitar Heaven II
DYEAR=1998
DGENRE=Blues
TTITLE0=Eric Clapton - West Coast Idea
TTITLE1=T-Bone Walker - Reconsider Baby
TTITLE2=Santana - Everyday I Have The Blues
TTITLE3=Muddy Waters - Key Little Highway
TTITLE4=Magic Sam - I Need You So Bad
TTITLE5=John Lee Hooker - Boom, Boom, I'm Gonna Shoot You Down
TTITLE6=B.B. King - Everyday I Have The Blues
TTITLE7=Ronnie Earl and Dave Spector - Bluebird Blues
TTITLE8=Buddy Guy and Jr. Wells - Trouble Don't Last Always
TTITLE9=Eric Clapton - Freight Loader
TTITLE10=Muddy Waters - Rosalie
TTITLE11=Sleepy John Estes - Someday Baby
TTITLE12=Luther Allison - Five Long Years
TTITLE13=Robert Jr. Lockwood - Lockwood's Boogie
EXTD=
EXTT0=
EXTT1=
EXTT2=
EXTT3=
EXTT4=
EXTT5=
EXTT6=
EXTT7=
EXTT8=
EXTT9=
EXTT10=
EXTT11=
EXTT12=
EXTT13=
PLAYORDER=
